<svg width="24" height="24" viewBox="0 0 24 24" fill="none" xmlns="http://www.w3.org/2000/svg">
<path fill-rule="evenodd" clip-rule="evenodd" d="M21.4546 5.41575C21.6468 5.70687 21.6147 6.10248 21.3585 6.35876L12.1661 15.5511C12.0718 15.6454 11.9542 15.7128 11.8253 15.7465L7.99685 16.7465C7.87198 16.7791 7.74327 16.7784 7.62234 16.7476C7.49378 16.7149 7.37401 16.6482 7.27699 16.5511C7.08871 16.3629 7.01438 16.0889 7.08167 15.8313L8.08167 12.0028C8.11113 11.89 8.16643 11.7786 8.24291 11.6912L17.4694 2.46967C17.5501 2.38891 17.6474 2.32846 17.7533 2.29163C17.8318 2.26432 17.915 2.25 17.9997 2.25C18.1986 2.25 18.3894 2.32902 18.53 2.46967L21.3585 5.2981C21.3951 5.33471 21.4271 5.37416 21.4546 5.41575ZM19.7675 5.82843L17.9997 4.06066L9.48153 12.5788L8.85654 14.9716L11.2493 14.3466L19.7675 5.82843Z" fill="#4F4F4F"/>
<path d="M19.641 17.1603C19.9145 14.8227 20.0014 12.4688 19.902 10.1208C19.8973 10.0084 19.9395 9.89898 20.0191 9.81942L21.0024 8.83609C21.1233 8.71519 21.3299 8.79194 21.3412 8.96254C21.5262 11.7522 21.456 14.5545 21.1309 17.3346C20.8943 19.3571 19.27 20.9421 17.258 21.167C13.7914 21.5544 10.208 21.5544 6.74146 21.167C4.72941 20.9421 3.10507 19.3571 2.86852 17.3346C2.45398 13.7903 2.45398 10.2097 2.86852 6.66543C3.10507 4.6429 4.72941 3.05789 6.74146 2.83301C9.37121 2.5391 12.0682 2.46815 14.7303 2.62016C14.9019 2.62996 14.9801 2.83757 14.8586 2.95909L13.8661 3.95165C13.7874 4.03034 13.6795 4.07261 13.5682 4.06885C11.3418 3.99376 9.10025 4.07872 6.90807 4.32373C5.57797 4.47239 4.51248 5.522 4.35837 6.83968C3.95737 10.2682 3.95737 13.7318 4.35837 17.1603C4.51248 18.478 5.57797 19.5276 6.90807 19.6763C10.2639 20.0513 13.7355 20.0513 17.0913 19.6763C18.4214 19.5276 19.4869 18.478 19.641 17.1603Z" fill="#4F4F4F"/>
</svg>
