<svg width="24" height="24" viewBox="0 0 24 24" fill="none" xmlns="http://www.w3.org/2000/svg">
<path d="M16.4762 3.00353C16.6438 3.01946 16.7161 3.22293 16.5971 3.34196L8.27697 11.6621C8.18274 11.7563 8.11532 11.8739 8.08164 12.0028L7.08164 15.8313C7.01435 16.0889 7.08869 16.3629 7.27697 16.5511C7.46524 16.7394 7.73922 16.8138 7.99684 16.7465L11.8253 15.7465C11.9542 15.7128 12.0718 15.6454 12.1661 15.5511L20.604 7.11322C20.7224 6.99483 20.9248 7.06566 20.9422 7.23217C21.2938 10.5813 21.2739 13.9597 20.8826 17.3055C20.6598 19.2106 19.1286 20.7064 17.2302 20.9185C13.7821 21.3039 10.2174 21.3039 6.76923 20.9185C4.87083 20.7064 3.33964 19.2106 3.11683 17.3055C2.70455 13.7805 2.70455 10.2195 3.11683 6.69449C3.33964 4.78944 4.87083 3.29366 6.76923 3.08148C9.96662 2.72413 13.2643 2.69814 16.4762 3.00353Z" fill="#FF3636"/>
<path d="M17.8231 4.23729C17.9206 4.13985 18.0787 4.13985 18.1763 4.23729L19.5907 5.65165C19.6883 5.74928 19.6883 5.90757 19.5907 6.0052L11.2973 14.2986C11.266 14.3299 11.2264 14.3524 11.1837 14.3637L9.26924 14.8638C9.08461 14.9119 8.91645 14.7433 8.96438 14.5587L9.46438 12.6445C9.4756 12.6015 9.49809 12.5623 9.52949 12.5309L17.8231 4.23729Z" fill="#FF3636"/>
</svg>
