<svg width="12" height="12" viewBox="0 0 12 12" fill="none" xmlns="http://www.w3.org/2000/svg">
<path d="M6 12C2.69023 12 0 9.30977 0 6C0 2.69023 2.69023 0 6 0C9.30977 0 12 2.69023 12 6C12 9.30977 9.30977 12 6 12ZM6 0.837209C3.15349 0.837209 0.837209 3.15349 0.837209 6C0.837209 8.84651 3.15349 11.1628 6 11.1628C8.84651 11.1628 11.1628 8.84651 11.1628 6C11.1628 3.15349 8.84651 0.837209 6 0.837209Z" fill="#828282"/>
<path d="M8.07109 8.19349C7.99853 8.19349 7.92598 8.17675 7.859 8.13209L6.12877 7.09954C5.699 6.84279 5.38086 6.27907 5.38086 5.78233V3.49396C5.38086 3.26512 5.57063 3.07536 5.79946 3.07536C6.0283 3.07536 6.21807 3.26512 6.21807 3.49396V5.78233C6.21807 5.98326 6.38551 6.27907 6.55853 6.37954L8.28877 7.41209C8.4897 7.5293 8.55109 7.78605 8.43388 7.98698C8.35016 8.12093 8.21063 8.19349 8.07109 8.19349Z" fill="#828282"/>
</svg>
