<svg width="17" height="18" viewBox="0 0 17 18" fill="none" xmlns="http://www.w3.org/2000/svg">
<path d="M15.8165 3.53229C14.5171 3.40316 13.2178 3.30631 11.9104 3.23368V3.22561L11.7328 2.17645C11.6118 1.43397 11.4342 0.320251 9.54574 0.320251H7.43129C5.55085 0.320251 5.3733 1.38555 5.24417 2.16838L5.0747 3.2014C4.32415 3.24982 3.57359 3.29824 2.82304 3.37088L1.17668 3.53229C0.837717 3.56457 0.595604 3.86317 0.627886 4.19406C0.660167 4.52495 0.950703 4.76706 1.28966 4.73478L2.93603 4.57337C7.16496 4.15371 11.4262 4.31512 15.7035 4.74285H15.7681C16.0747 4.74285 16.3411 4.50881 16.3733 4.19406C16.3975 3.86317 16.1554 3.56457 15.8165 3.53229Z" fill="white"/>
<path d="M14.3316 5.88079C14.1379 5.67903 13.8716 5.56604 13.5972 5.56604H3.39617C3.12178 5.56604 2.84738 5.67903 2.66176 5.88079C2.47614 6.08255 2.37123 6.35694 2.38737 6.63941L2.88774 14.9197C2.97651 16.1464 3.0895 17.6798 5.90608 17.6798H11.0873C13.9038 17.6798 14.0169 16.1545 14.1056 14.9197L14.606 6.64748C14.6221 6.35694 14.5172 6.08255 14.3316 5.88079ZM9.83634 13.6365H7.14889C6.81804 13.6365 6.54364 13.3621 6.54364 13.0312C6.54364 12.7003 6.81804 12.4259 7.14889 12.4259H9.83634C10.1672 12.4259 10.4416 12.7003 10.4416 13.0312C10.4416 13.3621 10.1672 13.6365 9.83634 13.6365ZM10.5143 10.4083H6.47908C6.14819 10.4083 5.8738 10.1339 5.8738 9.80302C5.8738 9.47213 6.14819 9.19774 6.47908 9.19774H10.5143C10.8451 9.19774 11.1195 9.47213 11.1195 9.80302C11.1195 10.1339 10.8451 10.4083 10.5143 10.4083Z" fill="white"/>
</svg>
