<svg width="21" height="22" viewBox="0 0 21 22" fill="none" xmlns="http://www.w3.org/2000/svg">
<path d="M18.1406 19.4896H2.85938C2.5113 19.4896 2.22266 19.2009 2.22266 18.8528C2.22266 18.5048 2.5113 18.2161 2.85938 18.2161H18.1406C18.4887 18.2161 18.7773 18.5048 18.7773 18.8528C18.7773 19.2009 18.4887 19.4896 18.1406 19.4896Z" fill="white"/>
<path d="M16.4593 3.76689C14.8124 2.11991 13.1993 2.07746 11.5099 3.76689L10.4827 4.79413C10.3978 4.87902 10.3638 5.01486 10.3978 5.13371C11.043 7.38345 12.8428 9.18324 15.0925 9.82845C15.1265 9.83694 15.1604 9.84543 15.1944 9.84543C15.2878 9.84543 15.3727 9.81147 15.4406 9.74356L16.4593 8.71632C17.2998 7.88434 17.7073 7.07783 17.7073 6.26283C17.7158 5.42236 17.3083 4.60736 16.4593 3.76689Z" fill="white"/>
<path d="M13.5654 10.601C13.3192 10.4822 13.0815 10.3633 12.8523 10.2275C12.6655 10.1171 12.4873 9.99826 12.309 9.87092C12.1646 9.77753 11.9949 9.6417 11.8336 9.50587C11.8166 9.49738 11.7571 9.44644 11.6892 9.37852C11.4091 9.14081 11.095 8.83519 10.8148 8.49561C10.7893 8.47863 10.7469 8.4192 10.6875 8.34279C10.6026 8.24092 10.4582 8.07113 10.3309 7.87587C10.229 7.74852 10.1102 7.56175 9.9998 7.37498C9.86397 7.14576 9.74511 6.91654 9.62626 6.67883C9.60828 6.6403 9.59087 6.60195 9.574 6.56383C9.44872 6.28086 9.07972 6.19813 8.8609 6.41696L3.99767 11.2802C3.8873 11.3906 3.78543 11.6028 3.75996 11.7471L3.30152 14.9986C3.21663 15.5759 3.37793 16.1193 3.73449 16.4843C4.04011 16.7814 4.46459 16.9427 4.92303 16.9427C5.02491 16.9427 5.12678 16.9342 5.22866 16.9173L8.48866 16.4588C8.64147 16.4334 8.85371 16.3315 8.95558 16.2211L13.8127 11.364C14.0331 11.1436 13.95 10.7654 13.6633 10.6431C13.6311 10.6294 13.5985 10.6153 13.5654 10.601Z" fill="white"/>
</svg>
