<svg width="41" height="40" viewBox="0 0 41 40" fill="none" xmlns="http://www.w3.org/2000/svg">
<path d="M25.0492 3.33334H15.9492V10.6H25.0492V3.33334Z" fill="#71717A"/>
<path d="M27.5508 3.33334V10.6H36.9508C36.1008 6.01667 32.7174 3.35 27.5508 3.33334Z" fill="#71717A"/>
<path d="M3.83398 13.1V26.9833C3.83398 33.05 7.45065 36.6667 13.5173 36.6667H27.484C33.5507 36.6667 37.1673 33.05 37.1673 26.9833V13.1H3.83398ZM24.5673 26.9667L21.1007 28.9667C20.3673 29.3833 19.6507 29.6 18.984 29.6C18.484 29.6 18.034 29.4833 17.6173 29.25C16.6507 28.7 16.1173 27.5667 16.1173 26.1V22.1C16.1173 20.6333 16.6507 19.5 17.6173 18.95C18.584 18.3833 19.8173 18.4833 21.1007 19.2333L24.5673 21.2333C25.8506 21.9667 26.5507 23 26.5507 24.1167C26.5507 25.2333 25.834 26.2167 24.5673 26.9667Z" fill="#71717A"/>
<path d="M13.4508 3.33334C8.28411 3.35 4.90078 6.01667 4.05078 10.6H13.4508V3.33334Z" fill="#71717A"/>
</svg>
