<svg width="22" height="23" viewBox="0 0 22 23" fill="none" xmlns="http://www.w3.org/2000/svg">
<g clip-path="url(#clip0_1047_2508)">
<path d="M3.00781 22.5H18.9922C20.6534 22.5 22 21.1534 22 19.4922V3.50781C22 1.84664 20.6534 0.5 18.9922 0.5H3.00781C1.34664 0.5 0 1.84664 0 3.50781V19.4922C0 21.1534 1.34664 22.5 3.00781 22.5Z" fill="#F5F5F5"/>
<path d="M3.48289 11.9748C5.3608 11.9748 7.12616 12.7084 8.45283 14.0426C9.78193 15.3769 10.5137 17.1541 10.5137 19.0459H13.4076C13.4076 13.5508 8.95523 9.08056 3.48289 9.08056V11.9748ZM3.48745 6.84436C10.1803 6.84436 15.6256 12.3194 15.6256 19.0496H18.5195C18.5195 10.7234 11.7757 3.95044 3.48745 3.95044V6.84436ZM7.48931 17.0279C7.48931 18.1346 6.59161 19.0323 5.48489 19.0323C4.37816 19.0323 3.48047 18.1349 3.48047 17.0279C3.48047 15.9205 4.37786 15.0234 5.48458 15.0234C6.59131 15.0234 7.48931 15.9205 7.48931 17.0279Z" fill="#FF9D0F"/>
</g>
<defs>
<clipPath id="clip0_1047_2508">
<rect width="22" height="22" fill="white" transform="translate(0 0.5)"/>
</clipPath>
</defs>
</svg>
