<svg width="28" height="28" viewBox="0 0 28 28" fill="none" xmlns="http://www.w3.org/2000/svg">
<g clip-path="url(#clip0_1047_2734)">
<path d="M3.82812 28H24.1719C26.2861 28 28 26.2861 28 24.1719V3.82812C28 1.71391 26.2861 0 24.1719 0H3.82812C1.71391 0 0 1.71391 0 3.82812V24.1719C0 26.2861 1.71391 28 3.82812 28Z" fill="#EA7819"/>
<path d="M4.43277 14.6042C6.82284 14.6042 9.06966 15.5378 10.7582 17.2359C12.4497 18.9341 13.3811 21.196 13.3811 23.6038H17.0642C17.0642 16.6101 11.3976 10.9206 4.43277 10.9206V14.6042ZM4.43857 8.07453C12.9567 8.07453 19.8871 15.0428 19.8871 23.6084H23.5703C23.5703 13.0114 14.9873 4.39136 4.43857 4.39136V8.07453ZM9.53185 21.0353C9.53185 22.4439 8.38932 23.5864 6.98077 23.5864C5.57221 23.5864 4.42969 22.4443 4.42969 21.0353C4.42969 19.626 5.57182 18.4843 6.98038 18.4843C8.38894 18.4843 9.53185 19.626 9.53185 21.0353Z" fill="white"/>
</g>
<defs>
<clipPath id="clip0_1047_2734">
<rect width="28" height="28" fill="white"/>
</clipPath>
</defs>
</svg>
