<svg width="23" height="23" viewBox="0 0 23 23" fill="none" xmlns="http://www.w3.org/2000/svg">
<path fill-rule="evenodd" clip-rule="evenodd" d="M20.1977 9.89583C20.1754 9.72982 20.151 9.56401 20.1245 9.39843L20.0658 9.03045C19.8593 7.73672 18.7434 6.78477 17.4333 6.78477L9.99271 6.78477C9.71676 5.80306 8.81495 5.08333 7.74504 5.08333H5.64444C4.28517 5.08333 3.14027 6.09898 2.97821 7.44854L2.72843 9.52856C2.46017 11.7625 2.5294 14.0241 2.93381 16.2374C3.15016 17.4215 4.14047 18.3091 5.3411 18.395L6.72894 18.4943C9.90586 18.7216 13.095 18.7216 16.2719 18.4943L17.7733 18.3869C18.5144 18.3339 19.1707 17.9573 19.5935 17.3905C20.156 16.8509 20.5987 16.1918 20.8851 15.4554L22.0304 12.5103C22.5196 11.2523 21.5916 9.89583 20.2419 9.89583H20.1977ZM5.64444 6.45833C4.98116 6.45833 4.42248 6.95393 4.3434 7.61248L4.09362 9.6925C3.8418 11.7896 3.90679 13.9126 4.28641 15.9903C4.39002 16.5573 4.86426 16.9824 5.43923 17.0235L5.51806 17.0292L7.65581 11.5067C8.03162 10.5358 8.9656 9.89583 10.0067 9.89583H18.8094C18.7959 9.80219 18.7816 9.70863 18.7667 9.61515L18.708 9.24717C18.608 8.62072 18.0676 8.15977 17.4333 8.15977L9.44648 8.15977C9.03673 8.15977 8.70457 7.8276 8.70457 7.41786C8.70457 6.88793 8.27497 6.45833 7.74504 6.45833H5.64444Z" fill="white"/>
</svg>
