<svg width="34" height="34" viewBox="0 0 34 34" fill="none" xmlns="http://www.w3.org/2000/svg">
<path fill-rule="evenodd" clip-rule="evenodd" d="M9.9015 6.92828C14.627 6.55857 19.3742 6.55858 24.0998 6.92828L27.2741 7.17662C29.0422 7.31495 30.4886 8.64009 30.7809 10.3894C31.5122 14.7661 31.5122 19.2339 30.7809 23.6107C30.4886 25.36 29.0422 26.6851 27.2741 26.8235L24.0997 27.0718C19.3742 27.4415 14.627 27.4415 9.9015 27.0718L6.72717 26.8235C4.95907 26.6851 3.51262 25.36 3.22034 23.6107C2.48905 19.2339 2.48905 14.7661 3.22034 10.3894C3.51262 8.64009 4.95907 7.31495 6.72717 7.17662L9.9015 6.92828ZM14.1672 20.4994V13.5007C14.1672 13.1703 14.5276 12.9663 14.8109 13.1362L20.6432 16.6356C20.9183 16.8007 20.9183 17.1994 20.6432 17.3645L14.8109 20.8638C14.5276 21.0338 14.1672 20.8298 14.1672 20.4994Z" fill="#FF0000"/>
</svg>
